<?xml version="1.0" standalone="no"?>
<!DOCTYPE svg PUBLIC "-//W3C//DTD SVG 20010904//EN"
 "http://www.w3.org/TR/2001/REC-SVG-20010904/DTD/svg10.dtd">
<svg version="1.0" xmlns="http://www.w3.org/2000/svg"
 width="1024.000000pt" height="1024.000000pt" viewBox="0 0 1024.000000 1024.000000"
 preserveAspectRatio="xMidYMid meet">
<metadata>
Created by potrace 1.14, written by Peter Selinger 2001-2017
</metadata>
<g transform="translate(0.000000,1024.000000) scale(0.100000,-0.100000)"
fill="#000000" stroke="none">
<path d="M1069 10236 c-2 -2 -24 -7 -49 -10 -25 -3 -60 -10 -77 -15 -18 -5
-33 -8 -33 -6 0 9 -177 -58 -245 -92 -119 -59 -206 -123 -310 -228 -105 -104
-171 -195 -231 -315 -37 -76 -90 -226 -99 -281 -3 -19 -10 -59 -15 -89 -5 -33
-9 -1671 -9 -4080 0 -4420 -4 -4102 60 -4294 146 -437 508 -740 974 -815 38
-6 1545 -10 4090 -10 4420 0 4094 -4 4286 59 299 98 550 311 691 585 52 102
90 204 107 285 6 30 15 66 19 80 10 36 13 8136 2 8190 -4 25 -11 63 -14 84 -8
49 -57 197 -87 262 -163 351 -503 609 -894 678 -68 12 -697 14 -4121 15 -2222
1 -4043 -1 -4045 -3z"/>
</g>
</svg>
